<svg width="155" height="78" viewBox="0 0 155 78" fill="none" xmlns="http://www.w3.org/2000/svg">
<path fill-rule="evenodd" clip-rule="evenodd" d="M59.6797 49.9931C57.4476 49.9931 55.5198 49.1914 53.9499 47.6103C52.3686 46.0315 51.5663 44.1064 51.5663 41.8906C51.5663 41.3043 51.7732 40.8004 52.1812 40.3929C52.6016 39.9729 53.1122 39.7601 53.6994 39.7601C54.2737 39.7601 54.7783 39.9729 55.1988 40.3928C55.607 40.8004 55.814 41.3043 55.814 41.8906C55.814 42.9612 56.1856 43.8528 56.9503 44.6161C57.7147 45.38 58.6075 45.7512 59.6797 45.7512C60.7515 45.7512 61.6442 45.38 62.409 44.6161C63.1611 43.8652 63.5266 42.9797 63.5266 41.909V23.1732C63.5266 22.5841 63.7414 22.0786 64.1651 21.6707C64.5641 21.2573 65.0701 21.0427 65.6597 21.0427C66.2493 21.0427 66.7554 21.2573 67.1641 21.6804C67.5781 22.0787 67.7929 22.5843 67.7929 23.1732V41.909C67.7929 44.1257 66.9902 46.0447 65.4071 47.6126C63.8256 49.1919 61.8984 49.9931 59.6797 49.9931Z" fill="#00E871"/>
<path fill-rule="evenodd" clip-rule="evenodd" d="M74.6097 37.0249H87.3183C86.9036 35.7866 86.1637 34.74 85.1141 33.9096C83.8994 32.965 82.5054 32.4851 80.9733 32.4851C79.4285 32.4851 78.0282 32.965 76.8114 33.9113C75.7638 34.7401 75.0243 35.7863 74.6097 37.0249ZM80.974 49.9931C77.9648 49.9931 75.3547 48.9231 73.2164 46.8129L73.215 46.8113C72.2158 45.8136 71.4302 44.6594 70.8797 43.3804C70.3029 42.036 70.0105 40.6147 70.0105 39.1553C70.0105 36.1614 71.0885 33.5667 73.215 31.4434C74.2275 30.4445 75.4024 29.6602 76.7084 29.1103C78.0523 28.5353 79.4883 28.2431 80.974 28.2431C83.9706 28.2431 86.5748 29.3196 88.7137 31.4425C89.7136 32.4413 90.4996 33.6089 91.0507 34.914C91.6264 36.2555 91.9188 37.6832 91.9188 39.1553C91.9188 39.7415 91.7121 40.2455 91.3041 40.6528C90.8838 41.0725 90.373 41.2856 89.7859 41.2856H74.6133C75.0291 42.4986 75.7731 43.5253 76.8296 44.3425C78.0348 45.2773 79.4288 45.7512 80.974 45.7512C83.4313 45.7512 85.3475 44.999 86.669 43.5159C87.0443 43.0809 87.536 42.8424 88.1267 42.8118C88.7108 42.7824 89.2269 42.957 89.6625 43.3318C90.105 43.7281 90.3419 44.2239 90.3722 44.8103C90.4024 45.3835 90.2192 45.8952 89.828 46.3311C87.6776 48.7602 84.698 49.9931 80.974 49.9931Z" fill="#00E871"/>
<path fill-rule="evenodd" clip-rule="evenodd" d="M96.455 49.9931C95.8705 49.9931 95.3614 49.788 94.9417 49.3838C94.529 48.9716 94.3221 48.4678 94.3221 47.8814V23.2663C94.3221 22.6797 94.529 22.1759 94.9369 21.7686C95.3573 21.3486 95.868 21.1358 96.455 21.1358C97.0294 21.1358 97.534 21.3486 97.9545 21.7685C98.3627 22.1761 98.5695 22.68 98.5695 23.2663V47.8814C98.5695 48.4677 98.3627 48.9714 97.9545 49.3789C97.5298 49.788 97.0269 49.9931 96.455 49.9931Z" fill="#00E871"/>
<path fill-rule="evenodd" clip-rule="evenodd" d="M112.997 32.4853C111.2 32.4853 109.704 33.1174 108.426 34.4177C107.164 35.7132 106.523 37.2951 106.523 39.1182C106.523 40.9291 107.164 42.5048 108.427 43.8016C109.704 45.1006 111.199 45.7326 112.997 45.7326C114.795 45.7326 116.29 45.1006 117.568 43.8002C118.818 42.5057 119.453 40.9296 119.453 39.1182C119.453 37.2946 118.818 35.7123 117.566 34.4152C116.29 33.1174 114.795 32.4853 112.997 32.4853ZM104.41 57.0819C103.825 57.0819 103.316 56.877 102.897 56.4726C102.484 56.0603 102.277 55.5564 102.277 54.9703V30.355C102.277 29.7689 102.484 29.265 102.892 28.8573C103.312 28.4376 103.823 28.2245 104.41 28.2245C104.984 28.2245 105.489 28.4375 105.909 28.8573C106.317 29.265 106.524 29.7689 106.524 30.355V30.4316C108.408 28.9665 110.582 28.2245 112.998 28.2245C115.935 28.2245 118.484 29.3022 120.573 31.4274C122.649 33.5381 123.701 36.1258 123.701 39.1182C123.701 42.0983 122.649 44.6797 120.573 46.7904C118.483 48.9035 115.935 49.9745 112.998 49.9745C110.582 49.9745 108.408 49.2328 106.524 47.7676V54.9703C106.524 55.5564 106.317 56.0603 105.909 56.4678C105.485 56.877 104.982 57.0819 104.41 57.0819Z" fill="#00E871"/>
<path fill-rule="evenodd" clip-rule="evenodd" d="M129.001 26.4011C128.551 26.4011 128.115 26.2845 127.705 26.0545C127.291 25.8225 126.963 25.4949 126.73 25.0806C126.5 24.6712 126.383 24.2359 126.383 23.7871C126.383 23.3395 126.5 22.9019 126.729 22.4866C126.963 22.0629 127.297 21.7332 127.722 21.5065C128.551 21.0634 129.455 21.064 130.273 21.5077C130.689 21.7338 131.021 22.0616 131.261 22.4822C131.498 22.8988 131.618 23.3378 131.618 23.7871C131.618 24.2358 131.501 24.6711 131.271 25.0806C131.038 25.495 130.71 25.8227 130.296 26.0548C129.886 26.2845 129.45 26.4011 129.001 26.4011Z" fill="#00E871"/>
<path fill-rule="evenodd" clip-rule="evenodd" d="M129.001 49.993C128.414 49.993 127.909 49.7864 127.501 49.3787C127.083 48.9758 126.868 48.4703 126.868 47.8812V30.3735C126.868 29.7844 127.083 29.2788 127.506 28.8709C127.905 28.4577 128.411 28.2431 129.001 28.2431C129.59 28.2431 130.097 28.4577 130.505 28.8808C130.919 29.279 131.134 29.7845 131.134 30.3735V47.8812C131.134 48.47 130.919 48.9755 130.495 49.3836C130.092 49.7864 129.588 49.993 129.001 49.993Z" fill="#00E871"/>
<path fill-rule="evenodd" clip-rule="evenodd" d="M139.49 49.9931C138.903 49.9931 138.398 49.7865 137.99 49.3789C137.572 48.976 137.357 48.4703 137.357 47.8814V32.5036H135.037C134.45 32.5036 133.939 32.2908 133.519 31.8708C133.111 31.4637 132.904 30.9599 132.904 30.3735C132.904 29.7874 133.111 29.2834 133.519 28.8761C133.939 28.4561 134.45 28.2433 135.037 28.2433H137.357V23.2663C137.357 22.6772 137.572 22.1717 137.995 21.7638C138.394 21.3504 138.9 21.1358 139.49 21.1358C140.079 21.1358 140.586 21.3504 140.994 21.7733C141.397 22.1761 141.604 22.68 141.604 23.2663V28.2433H143.942C144.532 28.2433 145.038 28.4577 145.447 28.8808C145.85 29.2834 146.057 29.7874 146.057 30.3735C146.057 30.9599 145.85 31.4637 145.442 31.871C145.039 32.2892 144.532 32.5036 143.942 32.5036H141.604V47.8814C141.604 48.4677 141.397 48.9716 140.989 49.3789C140.581 49.7865 140.077 49.9931 139.49 49.9931Z" fill="#00E871"/>
<path fill-rule="evenodd" clip-rule="evenodd" d="M15.6292 66.4998C15.1815 66.4206 14.7424 66.2991 14.3177 66.137C13.8907 65.9412 13.4834 65.705 13.1014 65.4316C12.7611 65.1504 12.4476 64.8382 12.1649 64.4991C11.9474 64.1961 11.7581 63.8738 11.5994 63.5363C11.4912 63.2462 11.4091 62.947 11.3541 62.6423C11.3207 62.2775 11.3207 61.9105 11.3541 61.5457C11.4335 61.0934 11.557 60.6501 11.723 60.222C11.9687 59.6905 12.2675 59.1852 12.6149 58.7139C13.0936 58.1261 13.6338 57.5913 14.2265 57.1186C15.14 56.4577 16.1237 55.8996 17.1596 55.4544C19.2799 54.5929 21.5279 54.1043 23.7881 53.7841C25.1199 53.6118 26.4557 53.4901 27.7936 53.3786C27.6584 53.7841 27.5233 54.182 27.3882 54.5726C27.001 55.6996 26.6057 56.8247 26.1517 57.9253C25.4828 59.5276 24.6254 61.0444 23.5976 62.4437C22.9725 63.2255 22.265 63.9377 21.4874 64.568C20.777 65.0927 20.0117 65.5386 19.2049 65.8978C18.5378 66.1648 17.8449 66.3625 17.1373 66.4877C16.864 66.5177 16.5893 66.5326 16.3143 66.5323C16.0832 66.5323 15.8522 66.5221 15.6231 66.4998M34.3856 42.4264C34.7377 40.5916 34.9821 38.7377 35.1174 36.8743C35.3505 37.1358 35.5735 37.4013 35.7903 37.675C36.4677 38.5692 37.0423 39.5368 37.5032 40.5595C37.8057 41.3129 38.0239 42.0974 38.1539 42.8987C38.2198 43.5048 38.2245 44.116 38.1681 44.7231C38.0812 45.2641 37.9385 45.7946 37.7424 46.3062C37.5514 46.7272 37.3206 47.1291 37.0532 47.5062C36.798 47.8121 36.5158 48.0943 36.21 48.3495C35.8668 48.5937 35.5017 48.8054 35.1194 48.9819C34.3229 49.2732 33.4971 49.4771 32.6565 49.5901L32.5673 49.6002C33.3067 47.2463 33.9158 44.8535 34.3917 42.4325M30.4612 28.9465C28.945 28.0404 27.3841 27.2133 25.8131 26.4065C24.2422 25.5998 22.655 24.868 21.1509 23.9883C20.8732 23.8261 20.6016 23.6538 20.3401 23.4653C20.1218 23.2854 19.9184 23.0881 19.732 22.8754C19.6688 22.7798 19.6106 22.681 19.5576 22.5795C19.5293 22.4923 19.5049 22.4051 19.4847 22.3159C19.4847 22.2632 19.4847 22.2105 19.4847 22.1558C19.4847 22.1011 19.5029 22.095 19.513 22.0646C19.5232 22.0342 19.5293 22.0403 19.5374 22.0261L19.6225 21.947C19.6931 21.9006 19.7662 21.8579 19.8414 21.8193C20.0708 21.7409 20.306 21.6806 20.5448 21.6389C21.4853 21.5663 22.431 21.5982 23.3645 21.7342C24.5739 21.8997 25.7592 22.2087 26.8956 22.6545C27.5637 22.9514 28.1994 23.3161 28.7929 23.743C29.2556 24.1148 29.6788 24.5332 30.0558 24.9917C30.3922 25.4527 30.6802 25.9473 30.9153 26.4674C31.1646 27.1283 31.3393 27.815 31.4362 28.5147L31.5822 29.6336C31.2173 29.3985 30.8463 29.1694 30.4734 28.9465M18.2912 18.8456C17.2643 19.3113 16.5045 20.218 16.2256 21.3105C15.9848 22.4113 16.1872 23.5627 16.7891 24.5153C17.8797 26.2282 19.8135 27.1079 21.5568 27.9978C24.869 29.6884 28.2461 31.3242 31.2867 33.4709C31.4894 33.6087 31.6779 33.7506 31.8725 33.8925C31.8742 35.6994 31.7591 37.5046 31.5279 39.2966C31.0171 42.921 30.0603 46.4501 28.9535 49.9347L28.1548 49.9975C26.4339 50.1374 24.719 50.2995 23.0102 50.5367C19.9898 50.9523 16.9817 51.6942 14.2755 53.1354C11.6404 54.5442 9.35384 56.7557 8.38085 59.6382C7.90937 61.029 7.85093 62.5265 8.2126 63.9498C8.58557 65.2743 9.30651 66.4747 10.3005 67.4262C11.3319 68.4235 12.5893 69.1566 13.9654 69.5627C15.5573 70.0018 17.2384 70.0018 18.8304 69.5627C21.4532 68.8457 23.8032 67.3638 25.5805 65.3059C27.2812 63.3599 28.465 61.1078 29.4441 58.7341C29.9103 57.601 30.3096 56.4415 30.7049 55.2881C30.9562 54.557 31.2049 53.8246 31.4509 53.0908C32.6917 53.0045 33.9227 52.8105 35.13 52.5111C36.9358 52.0595 38.5416 51.0232 39.6969 49.5637C40.7322 48.2187 41.3648 46.6077 41.5213 44.9177C41.6854 43.3351 41.4964 41.7359 40.9679 40.2352C40.4281 38.6639 39.6367 37.1906 38.6246 35.8729C37.6197 34.5466 36.47 33.3364 35.1969 32.2648C35.1806 31.8857 35.1604 31.5066 35.134 31.1276C35.1269 31.0228 35.1134 30.9185 35.0935 30.8154C35.0043 30.1397 34.9158 29.4688 34.8279 28.8025C34.686 27.7221 34.5563 26.6478 34.1691 25.6221C33.6609 24.233 32.8533 22.9728 31.8036 21.9308C30.8154 20.9735 29.6597 20.206 28.394 19.6666C27.6576 19.3389 26.8973 19.0679 26.1197 18.8557C25.3018 18.6506 24.4718 18.4976 23.6345 18.3976C22.901 18.2939 22.1617 18.2377 21.4209 18.2294C20.3403 18.2056 19.267 18.4129 18.2729 18.8375" fill="url(#paint0_linear_1728_3352)"/>
<path fill-rule="evenodd" clip-rule="evenodd" d="M23.9864 7.97852C21.7658 7.98075 19.9673 9.78232 19.9688 12.0029C19.9702 14.2235 21.7712 16.0226 23.9918 16.0219C26.2124 16.0212 28.0121 14.2208 28.0121 12.0002C28.0116 10.9331 27.5872 9.90982 26.8322 9.1556C26.0772 8.40139 25.0535 7.97798 23.9864 7.97852Z" fill="url(#paint1_linear_1728_3352)"/>
<defs>
<linearGradient id="paint0_linear_1728_3352" x1="7.97852" y1="44.0598" x2="42.4583" y2="40.7569" gradientUnits="userSpaceOnUse">
<stop stop-color="#D9FD75"/>
<stop offset="1" stop-color="#83E578"/>
</linearGradient>
<linearGradient id="paint1_linear_1728_3352" x1="19.9688" y1="12.0002" x2="28.1216" y2="10.7994" gradientUnits="userSpaceOnUse">
<stop stop-color="#D9FD75"/>
<stop offset="1" stop-color="#9BE285"/>
</linearGradient>
</defs>
</svg>
